<svg width="150" height="140" viewBox="0 0 150 140" fill="none" xmlns="http://www.w3.org/2000/svg">
<g clip-path="url(#clip0_2641_390)">
<path d="M0.00994478 99.8012C0.0205786 99.8562 0.0373475 99.9099 0.0599374 99.9612C0.069936 99.9912 0.0799345 100.031 0.089933 100.061L11.4983 119.818L11.5283 119.848C11.5483 119.878 11.5682 119.908 11.5982 119.948C11.6368 119.99 11.6805 120.027 11.7282 120.058C11.7582 120.078 11.7782 120.108 11.8082 120.128C11.8199 120.136 11.8341 120.14 11.8482 120.138C11.9614 120.202 12.0885 120.236 12.2182 120.238H57.3515L68.5199 139.575L68.5499 139.605C68.5699 139.635 68.5899 139.665 68.6199 139.705C68.6585 139.747 68.7021 139.784 68.7499 139.815C68.7799 139.835 68.7998 139.865 68.8298 139.885C68.8416 139.893 68.8557 139.897 68.8698 139.895C68.983 139.959 69.1101 139.993 69.2398 139.995H137.68C137.813 139.993 137.943 139.959 138.06 139.895L138.15 139.835C138.235 139.779 138.309 139.708 138.37 139.625C138.38 139.605 138.41 139.595 138.42 139.575L149.828 119.818C149.838 119.798 149.838 119.788 149.848 119.768C149.866 119.737 149.879 119.703 149.888 119.668C149.898 119.628 149.908 119.598 149.918 119.558C149.926 119.522 149.93 119.485 149.928 119.448C149.928 119.428 149.938 119.418 149.938 119.398C149.938 119.378 149.928 119.368 149.928 119.348C149.928 119.308 149.918 119.278 149.918 119.238C149.918 119.198 149.898 119.168 149.888 119.128C149.876 119.094 149.863 119.061 149.848 119.028C149.838 119.008 149.838 118.998 149.828 118.978L127.261 79.8941L138.42 60.557C138.43 60.537 138.43 60.527 138.44 60.507C138.457 60.4755 138.471 60.4419 138.48 60.407C138.49 60.367 138.5 60.337 138.51 60.297C138.518 60.261 138.521 60.224 138.52 60.187C138.52 60.167 138.53 60.157 138.53 60.137C138.53 60.117 138.52 60.107 138.52 60.087C138.52 60.0471 138.51 60.0171 138.51 59.9771C138.51 59.9371 138.49 59.9071 138.48 59.8671C138.468 59.8331 138.455 59.7997 138.44 59.7671C138.43 59.7471 138.43 59.7371 138.42 59.7171L104.215 0.435796C104.195 0.405801 104.165 0.385804 104.145 0.355808C104.11 0.310433 104.074 0.267036 104.035 0.225827C103.994 0.192494 103.95 0.162407 103.905 0.13584C103.861 0.106606 103.814 0.0830826 103.765 0.0658505C103.706 0.046721 103.646 0.0333267 103.585 0.0258564C103.555 0.0258564 103.525 0.00585938 103.485 0.00585938H80.6681C80.6481 0.00585938 80.6381 0.0158579 80.6181 0.0158579C80.5781 0.0158579 80.5481 0.0258564 80.5081 0.0258564L80.3882 0.055852C80.3582 0.0658505 80.3182 0.0858477 80.2882 0.0958462C80.2582 0.105845 80.2582 0.105845 80.2382 0.115843C80.2268 0.128194 80.2132 0.138359 80.1982 0.145839C80.1658 0.165988 80.1357 0.189444 80.1082 0.215829C80.0791 0.239912 80.0523 0.266694 80.0282 0.295817C80.0082 0.325812 79.9782 0.355808 79.9582 0.385804C79.9459 0.397197 79.9357 0.410751 79.9282 0.425798L57.3615 39.5201H35.0448C35.0248 39.5201 35.0148 39.5301 34.9948 39.5301C34.9548 39.5301 34.9248 39.5401 34.8848 39.5401C34.8448 39.5401 34.8048 39.5601 34.7748 39.5701C34.7408 39.5816 34.7075 39.595 34.6749 39.61C34.6549 39.62 34.6449 39.62 34.6249 39.63C34.6049 39.64 34.6049 39.65 34.5849 39.66C34.5525 39.6802 34.5224 39.7036 34.4949 39.73C34.4658 39.7541 34.439 39.7809 34.4149 39.81C34.3949 39.84 34.3649 39.87 34.3449 39.9C34.3326 39.9114 34.3224 39.925 34.3149 39.94L0.0999316 99.2213C0.0853924 99.2531 0.0752991 99.2867 0.069936 99.3213C0.0487471 99.3731 0.0320221 99.4266 0.0199433 99.4813C0.00407223 99.533 -0.00269386 99.5872 -5.37512e-05 99.6412C-0.00170921 99.6948 0.00163817 99.7483 0.00994478 99.8012ZM102.995 1.70561L136.24 59.2872H115.383L82.1279 1.70561H102.995ZM114.403 98.8014H93.5362L115.373 60.9669H136.24L114.403 98.8014ZM80.6681 2.54549L113.913 60.127L92.0764 97.9615L81.648 79.8841L92.8163 60.547C92.8263 60.527 92.8263 60.517 92.8363 60.497C92.8539 60.4655 92.8673 60.4319 92.8763 60.397C92.8863 60.357 92.8963 60.327 92.9063 60.287C92.9146 60.251 92.918 60.214 92.9163 60.177C92.9163 60.157 92.9263 60.147 92.9263 60.127C92.9263 60.107 92.9163 60.097 92.9163 60.077C92.9163 60.0371 92.9063 60.0071 92.9063 59.9671C92.9063 59.9271 92.8863 59.8971 92.8763 59.8571C92.8647 59.8231 92.8514 59.7897 92.8363 59.7571C92.8263 59.7371 92.8263 59.7271 92.8163 59.7071L81.398 39.95C81.378 39.92 81.348 39.9 81.328 39.87C81.2938 39.8246 81.2571 39.7812 81.218 39.74C81.1771 39.7067 81.1336 39.6766 81.088 39.65C81.0435 39.6228 80.9966 39.5993 80.9481 39.5801C80.8935 39.5604 80.836 39.5503 80.7781 39.5501C80.7481 39.5501 80.7081 39.5301 80.6781 39.5301H59.3212L80.6681 2.54549ZM57.8615 41.2198H80.1882L90.6266 59.2872H46.9431L36.5046 41.2198H57.8615ZM35.0448 42.0597L45.4733 60.127L12.2282 117.709L1.79968 99.6412L35.0448 42.0597ZM13.6979 118.548L46.9431 60.9669H90.6266L80.1882 79.0443H57.8615C57.8415 79.0443 57.8315 79.0543 57.8115 79.0543C57.7715 79.0543 57.7415 79.0643 57.7015 79.0643L57.5815 79.0943C57.5515 79.1043 57.5115 79.1243 57.4815 79.1342C57.4515 79.1442 57.4515 79.1442 57.4315 79.1543C57.4201 79.1666 57.4066 79.1768 57.3915 79.1842C57.3592 79.2044 57.329 79.2278 57.3015 79.2542C57.2724 79.2783 57.2456 79.3051 57.2215 79.3342C57.2015 79.3642 57.1716 79.3942 57.1516 79.4242C57.1416 79.4342 57.1216 79.4442 57.1216 79.4642L45.7132 99.2213C45.6987 99.2531 45.6886 99.2867 45.6832 99.3213C45.6621 99.3731 45.6453 99.4266 45.6332 99.4813C45.6246 99.5341 45.6213 99.5877 45.6233 99.6412C45.6216 99.6948 45.6249 99.7483 45.6332 99.8012C45.6439 99.8563 45.6606 99.9099 45.6832 99.9612C45.6932 99.9912 45.7032 100.031 45.7132 100.061L56.3917 118.548H13.6979ZM137.22 138.306H70.7296L81.158 120.238H147.648L137.22 138.306ZM69.2698 137.466L47.433 99.6412L57.8715 81.5639L79.7083 119.388L69.2698 137.466ZM147.648 118.548H81.158L59.3212 80.724H80.1882L91.3565 100.061L91.3865 100.091C91.4064 100.127 91.4299 100.16 91.4565 100.191C91.4951 100.233 91.5388 100.27 91.5865 100.301C91.6165 100.321 91.6365 100.351 91.6665 100.371C91.6782 100.379 91.6924 100.383 91.7065 100.381C91.8197 100.444 91.9468 100.479 92.0764 100.481H114.893C115.026 100.479 115.156 100.445 115.273 100.381L115.363 100.321C115.448 100.264 115.522 100.193 115.583 100.111C115.593 100.091 115.623 100.081 115.633 100.061L126.311 81.5639L147.648 118.548Z" fill="white"/>
</g>
<defs>
<clipPath id="clip0_2641_390">
<rect width="149.938" height="140" fill="white"/>
</clipPath>
</defs>
</svg>
